<svg xmlns="http://www.w3.org/2000/svg" fill="none" viewBox="0 0 176 105"><path fill="#000" stroke="#000" stroke-width="2" d="m2 49.952.014-.007-.014.007Zm0 0Zm172.696 51.281-.249-1.061.623-.467-34.497-46.044-.06-.08-.074-.067a3.78 3.78 0 0 1-.934-4.369 3.78 3.78 0 0 1 .934-1.276l.07-.063.057-.074 18.11-23.575.006-.008 13.371-17.744.795-1.056-1.232-.478a11.306 11.306 0 0 0-14.048 5.192l-24.972 33.402-24.854-33.569A12.452 12.452 0 0 0 92.93 4.734l-1.287.464.833 1.085 33.994 44.288-36.588 49.086-.805 1.08 1.267.458a11.53 11.53 0 0 0 14.132-5.495l27.901-37.945 2.773 3.698.01.014 24.723 34.19a11.976 11.976 0 0 0 14.813 5.576ZM4.068 34.773l-.01.036-.008.037-2.919 14.422-.13.066L1 49.95c-.001 2.78.015 5.558.05 8.336l.002.12.03.116c.097.38.199.745.298 1.1.33 1.185.633 2.265.633 3.434v.039l.003.039a48.214 48.214 0 0 0 12.026 28.29l.03.034.032.03a46.039 46.039 0 0 0 53.629 6.85l.017-.01.017-.01a39.9 39.9 0 0 0 19.07-29.146l.107-.836-.806-.247c-2.302-.706-4.347-.943-6.058-.15-1.742.807-2.847 2.54-3.621 5.032l-.01.03-.007.03a28.284 28.284 0 0 1-17.897 19.944c-13.78 4.604-25.93 2.369-34.477-4.612-8.38-6.844-13.446-18.372-13.086-32.91h76.65l.037-.96c.674-17.21-2.747-32.74-16.718-43.718C47.096-7.948 12.527 4.696 4.068 34.774Zm42.39-23.783h.006c17.638.136 31.115 14.763 31.938 35.901h-67.3c.62-10.755 4.43-19.693 10.463-25.95 6.202-6.433 14.808-10.09 24.893-9.951Z"/></svg>